<svg width="50" height="41" viewBox="0 0 50 41" fill="none" xmlns="http://www.w3.org/2000/svg">
<path d="M33.32 22.12V20.12C33.32 19.0591 32.8901 18.0417 32.125 17.2916C31.3598 16.5414 30.3221 16.12 29.24 16.12H21.08C19.9979 16.12 18.9602 16.5414 18.195 17.2916C17.4299 18.0417 17 19.0591 17 20.12V22.12" stroke="#555555" stroke-width="1.5" stroke-linecap="round" stroke-linejoin="round"/>
<path d="M25.32 10C27.7059 10 29.64 7.98528 29.64 5.5C29.64 3.01472 27.7059 1 25.32 1C22.9341 1 21 3.01472 21 5.5C21 7.98528 22.9341 10 25.32 10Z" stroke="#555555" stroke-width="1.5" stroke-linecap="round" stroke-linejoin="round"/>
<path d="M5.71242 30.7059V37.4208H0.907734V30.7059H5.71242ZM1.79836 31.4442V36.6708H4.79836V31.4442H1.79836ZM8.53664 29.6512V33.8114H10.2827V34.6083H8.53664V40.0692H7.62258V29.6512H8.53664ZM19.1951 29.6512V40.0927H18.2693V29.6512H19.1951ZM13.6521 30.4598C15.199 30.4716 16.3123 31.8778 16.3123 34.0927C16.3123 36.3075 15.199 37.7137 13.6521 37.7137C12.0935 37.7137 10.992 36.3075 10.992 34.0927C10.992 31.8778 12.0935 30.4716 13.6521 30.4598ZM13.6521 31.2802C12.6091 31.2919 11.8826 32.3934 11.8826 34.0927C11.8826 35.7919 12.6091 36.8934 13.6521 36.8934C14.6951 36.8934 15.4216 35.7919 15.4216 34.0927C15.4216 32.3934 14.6951 31.2919 13.6521 31.2802ZM29.7012 29.6512V40.0692H28.8105V29.6512H29.7012ZM27.6621 29.9091V39.5184H26.7832V34.4442H25.3301V33.6122H26.7832V29.9091H27.6621ZM25.6348 30.9872V31.7489H24.7559V36.5653C25.1484 36.5419 25.5234 36.5067 25.8691 36.4598L25.9277 37.1395C24.2871 37.4442 22.0957 37.4911 20.7363 37.4911L20.6191 36.7059L21.7207 36.6942V31.7489H20.8418V30.9872H25.6348ZM22.5645 36.6825C22.998 36.6708 23.4551 36.6532 23.9004 36.6239V31.7489H22.5645V36.6825ZM39.4573 29.6512V40.0927H38.5315V29.6512H39.4573ZM33.9143 30.4598C35.4612 30.4716 36.5745 31.8778 36.5745 34.0927C36.5745 36.3075 35.4612 37.7137 33.9143 37.7137C32.3557 37.7137 31.2541 36.3075 31.2541 34.0927C31.2541 31.8778 32.3557 30.4716 33.9143 30.4598ZM33.9143 31.2802C32.8713 31.2919 32.1448 32.3934 32.1448 34.0927C32.1448 35.7919 32.8713 36.8934 33.9143 36.8934C34.9573 36.8934 35.6838 35.7919 35.6838 34.0927C35.6838 32.3934 34.9573 31.2919 33.9143 31.2802ZM44.7251 32.8505C44.7251 34.62 46.0141 36.413 47.5493 37.0809L47.0337 37.8075C45.8149 37.2509 44.7602 36.0497 44.2798 34.6083C43.7876 36.1376 42.7388 37.4677 41.5493 38.0653L40.9985 37.3387C42.4868 36.6239 43.7876 34.6552 43.7993 32.8505V31.4911H41.3384V30.7294H47.2095V31.4911H44.7251V32.8505ZM49.5884 29.6512V40.0692H48.6626V29.6512H49.5884Z" fill="#555555"/>
</svg>
