<svg width="97" height="50" viewBox="0 0 97 50" fill="none" xmlns="http://www.w3.org/2000/svg">
<path d="M17.7891 6.98781C18.1358 6.98781 18.4248 7.10976 18.6559 7.35366C18.8871 7.59757 19.0027 7.90244 19.0027 8.2683V22.4024C19.0027 22.7683 18.8871 23.0732 18.6559 23.3293C18.4248 23.5854 18.1358 23.7195 17.7891 23.7195C17.4192 23.7195 17.1302 23.5976 16.9106 23.3293C16.691 23.0732 16.5754 22.7683 16.5754 22.4024V19.3537L17.1533 19.2927C17.1533 19.7683 17.0031 20.2805 16.7026 20.8293C16.402 21.3902 15.9859 21.9024 15.4543 22.3781C14.9226 22.8537 14.31 23.2561 13.5818 23.561C12.8652 23.8659 12.0907 24.0244 11.2585 24.0244C9.88309 24.0244 8.64633 23.6463 7.54828 22.8902C6.45023 22.1342 5.5949 21.0976 4.94763 19.7927C4.31192 18.4878 3.98828 17 3.98828 15.3415C3.98828 13.6829 4.31192 12.1707 4.94763 10.8659C5.58335 9.57317 6.45023 8.56098 7.54828 7.81708C8.64633 7.08537 9.85997 6.70732 11.1892 6.70732C12.0561 6.70732 12.8652 6.85366 13.6165 7.15854C14.3678 7.46342 15.015 7.86586 15.5698 8.37805C16.1246 8.89025 16.5639 9.45122 16.8759 10.0732C17.188 10.6951 17.3498 11.3171 17.3498 11.9268L16.5639 11.7317V8.24391C16.5639 7.87805 16.6795 7.57318 16.8991 7.32927C17.1187 7.08537 17.4192 6.96342 17.7775 6.96342L17.7891 6.98781ZM11.5359 21.6585C12.5531 21.6585 13.4431 21.3781 14.2291 20.8293C15.0035 20.2683 15.6161 19.5244 16.0553 18.5732C16.4945 17.622 16.7026 16.5488 16.7026 15.3537C16.7026 14.1585 16.483 13.122 16.0553 12.1707C15.6161 11.2195 15.015 10.4756 14.2291 9.92683C13.4546 9.37805 12.5531 9.10976 11.5359 9.10976C10.5188 9.10976 9.66348 9.37805 8.8775 9.91464C8.10309 10.4512 7.49049 11.1829 7.03971 12.122C6.58893 13.061 6.36932 14.1342 6.36932 15.3537C6.36932 16.5732 6.58893 17.622 7.01659 18.5732C7.45581 19.5244 8.05685 20.2805 8.84283 20.8293C9.61724 21.3902 10.5188 21.6585 11.5359 21.6585Z" fill="#555656"/>
<path d="M30.0872 6.73171C30.9541 6.73171 31.7632 6.89024 32.5145 7.19512C33.2658 7.5 33.913 7.90244 34.4678 8.40244C35.0226 8.90244 35.4619 9.40244 35.7739 9.93902C36.086 10.4756 36.2478 10.9756 36.2478 11.439L35.6699 11.0488V8.2561C35.6699 7.89024 35.7855 7.58537 36.0051 7.34146C36.2247 7.09756 36.5252 6.97561 36.8836 6.97561C37.2303 6.97561 37.5193 7.09756 37.7504 7.34146C37.9816 7.58537 38.0972 7.89024 38.0972 8.2561V22.2927C38.0972 24.0488 37.7504 25.5 37.0454 26.6463C36.3519 27.8049 35.4156 28.6707 34.2367 29.2439C33.0577 29.8171 31.7516 30.1098 30.2837 30.1098C29.6711 30.1098 29.0123 30.0244 28.2841 29.8537C27.5559 29.6829 26.9086 29.4756 26.3423 29.2317C25.7759 28.9878 25.406 28.7317 25.2442 28.4756C24.9437 28.2561 24.7472 28.0244 24.6778 27.7561C24.6085 27.4878 24.6547 27.2439 24.8165 27C25.0015 26.7073 25.2326 26.5488 25.5332 26.5488C25.8337 26.5488 26.192 26.6463 26.6428 26.8415C26.8277 26.9024 27.1167 27.0122 27.5097 27.1585C27.9026 27.3049 28.3534 27.439 28.8504 27.561C29.3475 27.6829 29.8329 27.7317 30.3184 27.7317C32.0406 27.7317 33.3582 27.2561 34.2829 26.3049C35.2076 25.3537 35.6699 24.0976 35.6699 22.5366V19.561L36.0051 19.7195C35.878 20.3171 35.6352 20.8781 35.2654 21.3902C34.8955 21.9024 34.4332 22.3537 33.9015 22.7561C33.3698 23.1463 32.7688 23.4634 32.1215 23.6829C31.4742 23.9024 30.8154 24.0244 30.145 24.0244C28.7233 24.0244 27.4519 23.6463 26.3191 22.9024C25.1864 22.1585 24.2849 21.1341 23.626 19.8293C22.9672 18.5244 22.6436 17.0366 22.6436 15.378C22.6436 13.7195 22.9672 12.1951 23.626 10.8902C24.2849 9.58537 25.1749 8.57317 26.296 7.82927C27.4172 7.09756 28.6771 6.71951 30.0756 6.71951L30.0872 6.73171ZM30.3877 9.09756C29.359 9.09756 28.4343 9.36585 27.6137 9.91463C26.793 10.4634 26.1573 11.2073 25.695 12.1463C25.2442 13.0854 25.013 14.1707 25.013 15.378C25.013 16.5854 25.2442 17.6098 25.695 18.561C26.1458 19.5122 26.793 20.2683 27.6137 20.8171C28.4343 21.378 29.359 21.6463 30.3877 21.6463C31.4164 21.6463 32.3758 21.378 33.1849 20.8293C33.9939 20.2805 34.6297 19.5366 35.092 18.5976C35.5543 17.6585 35.7855 16.5732 35.7855 15.3659C35.7855 14.1585 35.5543 13.0366 35.092 12.0976C34.6297 11.1585 33.9939 10.4146 33.1849 9.89024C32.3758 9.35366 31.4395 9.08537 30.3877 9.08537V9.09756Z" fill="#555656"/>
<path d="M56.9032 15.378C56.9032 17.0488 56.5565 18.5244 55.8514 19.8293C55.1579 21.1341 54.2101 22.1585 53.0312 22.9024C51.8407 23.6463 50.5114 24.0244 49.032 24.0244C47.5525 24.0244 46.2233 23.6463 45.0212 22.9024C43.8307 22.1585 42.8829 21.1341 42.1778 19.8293C41.4843 18.5244 41.126 17.0366 41.126 15.378C41.126 13.7195 41.4727 12.2317 42.1778 10.9268C42.8713 9.62195 43.8191 8.59756 45.0212 7.85366C46.2117 7.10975 47.5525 6.7317 49.032 6.7317C50.5114 6.7317 51.8407 7.10975 53.0312 7.85366C54.2101 8.59756 55.1579 9.62195 55.8514 10.9268C56.5449 12.2317 56.9032 13.7195 56.9032 15.378ZM54.476 15.378C54.476 14.1341 54.2332 13.0488 53.7594 12.1098C53.2855 11.1707 52.6382 10.4268 51.8175 9.90244C50.9969 9.36585 50.0722 9.09756 49.0435 9.09756C48.0148 9.09756 47.0901 9.36585 46.2695 9.90244C45.4488 10.439 44.8016 11.1707 44.3161 12.1098C43.8307 13.0488 43.5879 14.1341 43.5879 15.378C43.5879 16.6219 43.8307 17.6707 44.3161 18.6098C44.8016 19.5488 45.4604 20.2927 46.2695 20.8415C47.0786 21.3902 48.0148 21.6585 49.0435 21.6585C50.0722 21.6585 50.9969 21.3902 51.8175 20.8415C52.6382 20.2927 53.2855 19.5488 53.7594 18.6098C54.2332 17.6707 54.476 16.5854 54.476 15.378Z" fill="#555656"/>
<path d="M73.4777 0C73.8245 0 74.1134 0.121951 74.3446 0.365854C74.5757 0.609756 74.6913 0.914634 74.6913 1.28049V22.3902C74.6913 22.7561 74.5757 23.061 74.3446 23.3171C74.1134 23.5732 73.8245 23.7073 73.4777 23.7073C73.1078 23.7073 72.8189 23.5854 72.5993 23.3171C72.3796 23.061 72.2641 22.7561 72.2641 22.3902V19.3415L72.842 19.122C72.842 19.6341 72.6917 20.1707 72.3912 20.7439C72.0907 21.3049 71.6746 21.8415 71.1429 22.3293C70.6112 22.8171 69.9986 23.2317 69.2704 23.5488C68.5538 23.8659 67.7794 24.0244 66.9472 24.0244C65.5948 24.0244 64.3581 23.6463 63.26 22.9024C62.1504 22.1585 61.2835 21.1341 60.6478 19.8293C60.0121 18.5244 59.6885 17.0366 59.6885 15.378C59.6885 13.7195 60.0121 12.1951 60.6478 10.8902C61.2835 9.58537 62.1504 8.57317 63.2485 7.82927C64.3465 7.09756 65.5602 6.71951 66.8894 6.71951C67.7447 6.71951 68.5422 6.86585 69.2935 7.17073C70.0448 7.47561 70.6921 7.87805 71.2585 8.39024C71.8133 8.90244 72.2525 9.46342 72.5761 10.0854C72.8998 10.7073 73.0616 11.3293 73.0616 11.939L72.2756 11.7439V1.28049C72.2756 0.914634 72.3912 0.609756 72.6108 0.365854C72.8304 0.121951 73.1309 0 73.4893 0L73.4777 0ZM67.2246 21.6585C68.2417 21.6585 69.1317 21.3902 69.9177 20.8415C70.6921 20.2927 71.3047 19.5488 71.7439 18.5976C72.1832 17.6463 72.3912 16.5732 72.3912 15.378C72.3912 14.1829 72.1716 13.0854 71.7439 12.1463C71.3047 11.2073 70.7037 10.4634 69.9177 9.91463C69.1433 9.36585 68.2417 9.09756 67.2246 9.09756C66.2074 9.09756 65.3521 9.36585 64.5661 9.91463C63.7917 10.4634 63.1676 11.2073 62.7283 12.1463C62.2776 13.0854 62.058 14.1707 62.058 15.378C62.058 16.5854 62.2776 17.6098 62.7283 18.561C63.1676 19.5122 63.7917 20.2683 64.5661 20.8171C65.3406 21.378 66.2306 21.6463 67.2246 21.6463V21.6585Z" fill="#555656"/>
<path d="M92.1328 6.98781C92.4796 6.98781 92.7685 7.10976 92.9997 7.35366C93.2309 7.59757 93.3465 7.90244 93.3465 8.2683V22.4024C93.3465 22.7683 93.2309 23.0732 92.9997 23.3293C92.7685 23.5854 92.4796 23.7195 92.1328 23.7195C91.7629 23.7195 91.474 23.5976 91.2544 23.3293C91.0348 23.0732 90.9192 22.7683 90.9192 22.4024V19.3537L91.4971 19.2927C91.4971 19.7683 91.3468 20.2805 91.0463 20.8293C90.7458 21.3902 90.3297 21.9024 89.798 22.3781C89.2663 22.8537 88.6537 23.2561 87.9255 23.561C87.2089 23.8659 86.4345 24.0244 85.6023 24.0244C84.2268 24.0244 82.9901 23.6463 81.892 22.8902C80.794 22.1342 79.9387 21.0976 79.2914 19.7927C78.6557 18.4878 78.332 17 78.332 15.3415C78.332 13.6829 78.6557 12.1707 79.2914 10.8659C79.9271 9.57317 80.794 8.56098 81.892 7.81708C82.9901 7.08537 84.2037 6.70732 85.5329 6.70732C86.3998 6.70732 87.2089 6.85366 87.9602 7.15854C88.7115 7.46342 89.3588 7.86586 89.9136 8.37805C90.4684 8.89025 90.9076 9.45122 91.2197 10.0732C91.5318 10.6951 91.6936 11.3171 91.6936 11.9268L90.9076 11.7317V8.24391C90.9076 7.87805 91.0232 7.57318 91.2428 7.32927C91.4624 7.08537 91.7629 6.96342 92.1213 6.96342L92.1328 6.98781ZM85.8681 21.6585C86.8853 21.6585 87.7753 21.3781 88.5613 20.8293C89.3357 20.2683 89.9483 19.5244 90.3875 18.5732C90.8267 17.622 91.0348 16.5488 91.0348 15.3537C91.0348 14.1585 90.8151 13.122 90.3875 12.1707C89.9483 11.2195 89.3472 10.4756 88.5613 9.92683C87.7868 9.37805 86.8853 9.10976 85.8681 9.10976C84.851 9.10976 83.9957 9.37805 83.2097 9.91464C82.4353 10.4512 81.8111 11.1829 81.3719 12.122C80.9211 13.061 80.7015 14.1342 80.7015 15.3537C80.7015 16.5732 80.9211 17.622 81.3603 18.5732C81.7996 19.5244 82.4006 20.2805 83.1866 20.8293C83.961 21.3902 84.8625 21.6585 85.8797 21.6585H85.8681Z" fill="#555656"/>
<path d="M14.5292 45.6951C17.6827 45.6951 20.2391 42.9979 20.2391 39.6707C20.2391 36.3435 17.6827 33.6463 14.5292 33.6463C11.3757 33.6463 8.81934 36.3435 8.81934 39.6707C8.81934 42.9979 11.3757 45.6951 14.5292 45.6951Z" fill="#DF363F"/>
<path d="M31.0575 45.6951C34.211 45.6951 36.7674 42.9979 36.7674 39.6707C36.7674 36.3435 34.211 33.6463 31.0575 33.6463C27.9041 33.6463 25.3477 36.3435 25.3477 39.6707C25.3477 42.9979 27.9041 45.6951 31.0575 45.6951Z" fill="#F3B222"/>
<path d="M47.5868 45.6951C50.7403 45.6951 53.2967 42.9979 53.2967 39.6707C53.2967 36.3435 50.7403 33.6463 47.5868 33.6463C44.4333 33.6463 41.877 36.3435 41.877 39.6707C41.877 42.9979 44.4333 45.6951 47.5868 45.6951Z" fill="#2BA150"/>
<path d="M64.1151 45.6951C67.2686 45.6951 69.825 42.9979 69.825 39.6707C69.825 36.3435 67.2686 33.6463 64.1151 33.6463C60.9617 33.6463 58.4053 36.3435 58.4053 39.6707C58.4053 42.9979 60.9617 45.6951 64.1151 45.6951Z" fill="#974490"/>
<path d="M80.6435 45.6951C83.7969 45.6951 86.3533 42.9979 86.3533 39.6707C86.3533 36.3435 83.7969 33.6463 80.6435 33.6463C77.49 33.6463 74.9336 36.3435 74.9336 39.6707C74.9336 42.9979 77.49 45.6951 80.6435 45.6951Z" fill="#229FD1"/>
</svg>
